<?xml version="1.0" encoding="UTF-8"?>
<svg id="_图层_2" data-name="图层 2" xmlns="http://www.w3.org/2000/svg" viewBox="0 0 87.06 44.07">
  <defs>
    <style>
      .cls-1 {
        fill: #001a28;
        stroke-width: 0px;
      }
    </style>
  </defs>
  <g id="_图层_2-2" data-name="图层 2">
    <g>
      <g>
        <path class="cls-1" d="m3.47,22.61c.03.26.08.51.11.76l28.62,1.35c.25-1.14.38-2.31.42-3.49l-29.15,1.37Z"/>
        <g>
          <path class="cls-1" d="m10.51,35.49l14.14.67c.9-.67,1.75-1.38,2.53-2.16.24-.24.45-.5.68-.75l-18.87.89c.48.47.99.92,1.52,1.35Z"/>
          <path class="cls-1" d="m32.65,20.69v-3.38l-29.28,1.38v.75l29.27,1.38s0-.09,0-.13Z"/>
          <path class="cls-1" d="m6.67,31.38l21.91,1.03c.8-1.01,1.48-2.09,2.05-3.22l-24.61,1.16c.21.35.42.69.65,1.03Z"/>
          <path class="cls-1" d="m18.01,39.91c1.7-.74,3.3-1.57,4.79-2.5l-8.89.42c1.29.76,2.66,1.45,4.1,2.08Z"/>
          <path class="cls-1" d="m4.58,27.35l26.33,1.24c.5-1.09.89-2.23,1.18-3.4l-27.8,1.31c.09.29.19.57.3.85Z"/>
          <polygon class="cls-1" points="32.65 14.23 3.37 14.23 3.37 15.51 32.65 16.89 32.65 14.23"/>
        </g>
        <path class="cls-1" d="m18.01,44.07l-.35-.16c-4.64-2.09-8.24-4.47-11.01-7.29C2.36,32.25,0,26.36,0,20.04V0h36.01v20.04c0,6.32-2.36,12.21-6.65,16.59-2.77,2.82-6.37,5.2-11.01,7.29l-.35.16ZM1.7,1.7v18.34c0,5.88,2.19,11.34,6.16,15.39,2.55,2.6,5.87,4.81,10.14,6.77,4.27-1.96,7.59-4.17,10.14-6.77,3.97-4.05,6.16-9.52,6.16-15.39V1.7H1.7Z"/>
        <rect class="cls-1" x=".85" y="10.78" width="34.31" height="1.7"/>
        <g>
          <path class="cls-1" d="m10.65,8.68c-.34,0-.66-.06-.98-.18-.31-.12-.58-.29-.81-.51-.23-.22-.42-.49-.55-.81s-.21-.68-.21-1.09.07-.76.21-1.08c.14-.32.33-.59.56-.8.23-.22.51-.38.81-.5.31-.12.63-.17.96-.17s.66.06.97.17.58.28.81.5c.23.22.42.48.56.8.14.32.21.68.21,1.09s-.07.76-.21,1.08c-.14.32-.33.59-.56.81-.23.22-.5.39-.81.51s-.63.18-.97.18Zm0-.95c.4,0,.74-.15,1-.45.27-.3.4-.69.4-1.19,0-.25-.04-.47-.11-.67-.07-.2-.17-.37-.3-.51-.12-.14-.27-.24-.45-.32s-.36-.11-.56-.11c-.4,0-.73.14-1,.43-.27.29-.4.68-.4,1.17s.13.89.4,1.18c.27.3.6.45,1,.45Z"/>
          <path class="cls-1" d="m15.77,8.67c-.28,0-.54-.03-.79-.1-.25-.07-.46-.17-.65-.3s-.34-.31-.46-.52c-.12-.21-.19-.45-.21-.74h1.07c.03.28.15.48.34.62.2.13.42.2.69.2s.47-.05.65-.16c.18-.11.27-.25.27-.43s-.07-.31-.21-.41c-.14-.1-.35-.18-.63-.24l-.5-.11c-.52-.11-.9-.28-1.14-.51-.24-.23-.36-.53-.36-.91,0-.22.05-.43.15-.62.1-.19.24-.35.41-.48.17-.13.38-.24.62-.31s.49-.11.75-.11.52.03.75.1.44.17.61.3.31.29.41.48c.1.19.16.41.18.65h-1.06c-.02-.22-.12-.39-.28-.51-.17-.12-.37-.18-.62-.18-.23,0-.43.06-.6.17-.17.11-.25.25-.25.42,0,.15.06.26.17.34s.3.15.55.21l.57.13c.48.1.86.27,1.15.49s.44.55.44.97c0,.25-.06.48-.17.68-.11.2-.26.36-.45.49s-.4.23-.65.29c-.24.07-.5.1-.76.1Z"/>
          <path class="cls-1" d="m19.57,8.6v-4.03h-1.54v-.93h4.18v.93h-1.54v4.03h-1.1Z"/>
          <path class="cls-1" d="m24.85,8.68c-.34,0-.66-.06-.98-.18-.31-.12-.58-.29-.81-.51-.23-.22-.42-.49-.55-.81s-.21-.68-.21-1.09.07-.76.21-1.08c.14-.32.33-.59.56-.8.23-.22.51-.38.81-.5.31-.12.63-.17.96-.17s.66.06.97.17.58.28.81.5c.23.22.42.48.56.8.14.32.21.68.21,1.09s-.07.76-.21,1.08c-.14.32-.33.59-.56.81-.23.22-.5.39-.81.51s-.63.18-.97.18Zm0-.95c.4,0,.74-.15,1-.45.27-.3.4-.69.4-1.19,0-.25-.04-.47-.11-.67-.07-.2-.17-.37-.3-.51-.12-.14-.27-.24-.45-.32s-.36-.11-.56-.11c-.4,0-.73.14-1,.43-.27.29-.4.68-.4,1.17s.13.89.4,1.18c.27.3.6.45,1,.45Z"/>
          <path class="cls-1" d="m31.3,8.6l-2.06-3.56v3.56h-1.06V3.65h1.32l2.07,3.53v-3.53h1.05v4.95h-1.32Z"/>
          <g>
            <rect class="cls-1" x="3.37" y="3.65" width="1.08" height="4.95"/>
            <polygon class="cls-1" points="8.08 8.65 6.67 8.65 4.45 5.76 5.8 5.76 8.08 8.65"/>
            <polygon class="cls-1" points="4.44 7 3.68 6.36 6.6 3.65 8.02 3.65 4.44 7"/>
          </g>
        </g>
      </g>
      <g>
        <rect class="cls-1" x="69.06" y="12.04" width="10.88" height="1.86"/>
        <path class="cls-1" d="m86.13,13.39c-.97.15-2,.27-3.1.36-1.17.09-2.27.14-3.3.14v-1.86c1.5-.03,3.12-.16,4.85-.43.53-.08,1.05-.18,1.55-.28v2.06Z"/>
        <rect class="cls-1" x="46.52" y="15.29" width="16.21" height="1.86"/>
        <rect class="cls-1" x="72.47" y="17.72" width="12.87" height="1.86"/>
        <rect class="cls-1" x="72.47" y="23.5" width="12.87" height="1.86"/>
        <rect class="cls-1" x="72.47" y="20.64" width="12.87" height="1.86"/>
        <rect class="cls-1" x="45.26" y="18.05" width="18.83" height="1.86"/>
        <rect class="cls-1" x="49.64" y="20.95" width="9.86" height="1.86"/>
        <path class="cls-1" d="m59.5,25.57v-4.57h-2.5v4.92c0,1.29,1.05,2.34,2.34,2.34h4.93v-2.05h-4.13c-.35,0-.63-.28-.63-.63Z"/>
        <rect class="cls-1" x="53.28" y="10.86" width="2.63" height="5.64"/>
        <rect class="cls-1" x="77.46" y="12.71" width="2.49" height="5.64"/>
        <rect class="cls-1" x="45.26" y="18.05" width="2.51" height="4.29"/>
        <rect class="cls-1" x="68.92" y="12.04" width="2.51" height="10.45"/>
        <path class="cls-1" d="m68.92,22.49h2.51c-.03.68-.19,2.23-1.23,3.81-1.09,1.66-2.53,2.42-3.14,2.71v-2.09c.34-.33.75-.8,1.1-1.44.67-1.21.75-2.37.75-2.99Z"/>
        <rect class="cls-1" x="72.47" y="18.65" width="2.51" height="9.7"/>
        <path class="cls-1" d="m82.83,18.69v7.78h-10.36v1.92h10.25c1.45,0,2.62-1.17,2.62-2.62v-7.08s-2.51,0-2.51,0Z"/>
        <rect class="cls-1" x="61.58" y="18.05" width="2.51" height="4.29"/>
        <path class="cls-1" d="m49.64,20.95v1.89c-.02.32.04,2.03-1.39,2.91-1.17.72-1.97.92-3.12,1.18v1.8c2.77-.6,5.01-1,6.3-2.85.78-1.12.83-2.35.83-3.07v-1.86h-2.63Z"/>
        <rect class="cls-1" x="44.99" y="12.26" width="10.92" height="1.86"/>
        <polygon class="cls-1" points="64.26 12.26 56.92 12.26 56.63 14.11 64.26 14.11 64.26 12.26"/>
        <rect class="cls-1" x="70.91" y="14.91" width="9.03" height="1.86"/>
        <polygon class="cls-1" points="87.06 14.91 80.99 14.91 80.71 16.77 87.06 16.77 87.06 14.91"/>
      </g>
    </g>
  </g>
</svg>