<?xml version="1.0" standalone="no"?><!DOCTYPE svg PUBLIC "-//W3C//DTD SVG 1.1//EN" "http://www.w3.org/Graphics/SVG/1.1/DTD/svg11.dtd"><svg t="1780386432497" class="icon" viewBox="0 0 1024 1024" version="1.1" xmlns="http://www.w3.org/2000/svg" p-id="5945" xmlns:xlink="http://www.w3.org/1999/xlink" width="200" height="200"><path d="M224 96a128 128 0 0 0-128 128v576a128 128 0 0 0 128 128h576a128 128 0 0 0 128-128v-576a128 128 0 0 0-128-128h-576z m56 279.68v232.832c-4.736 25.92-16.256 38.912-34.496 38.912 0 0-14.272 0.128-18.176 0-20.224 0.192-31.36-14.08-33.408-42.688h33.728V375.68h52.352zM193.92 445.312c1.024 14.848-0.256 40.128-3.84 75.712a230.848 230.848 0 0 1-33.6 99.2L128 567.808c5.312-16.896 9.024-36.48 11.136-58.752 2.048-22.272 2.496-43.52 1.28-63.808h53.504z m174.784 65.92c1.92 23.552 5.504 42.432 10.88 56.64l-28.416 52.288c-18.56-23.616-29.952-56-34.112-97.216-2.176-21.504-3.2-47.36-3.072-77.632h53.248c-0.896 20.352-0.384 42.24 1.472 65.92z m85.312-65.536c-1.92 3.84 0.896 5.76 8.256 5.76l3.072-6.144h50.176l-43.52 86.144c-1.472 2.816 0.64 5.312 2.752 5.312l30.848 0.448-23.232 41.792-61.12-0.32c-8.96-1.664-12.8-7.424-12.48-13.952a39.36 39.36 0 0 1 6.08-16.512l27.008-54.912-37.952-0.384c-9.024-1.536-11.136-8-10.752-14.656a45.696 45.696 0 0 1 4.096-15.168l43.328-87.424h50.176l-36.736 70.016z m187.776-0.384h-32.832v152.32h49.856v50.112H483.008l24.768-50.176h49.536V445.312h-33.472v-53.248h117.952v53.248z m-231.04 150.08l72.576 0.32-27.52 52.032-67.776-0.32c-3.328 0-6.592-1.856-9.6-5.568l25.984-49.856c1.984 2.304 4.096 3.392 6.272 3.392z m350.208-203.328l24.832 0.192c27.968 2.24 53.44 22.016 53.44 56.96v35.392l10.752 0.192a50.944 50.944 0 0 1 45.888 44.8L896 608a43.904 43.904 0 0 1-38.4 39.424l-22.848 0.128c-22.464 0.128-35.712-14.464-39.744-43.776h48.576l-0.256-57.216a12.48 12.48 0 0 0-9.152-9.6l-73.216-0.32v111.104h-51.072V536.64h-51.072v-52.032h51.072V444.16h-32.192v-52.032h32.192v-16.064h51.072v16.064z m0 92.544V444.16h18.752c3.392 0.192 6.4 2.56 7.296 5.888l0.256 34.624h-26.304z m134.336-67.2c0 12.608-9.28 23.104-21.312 25.088l-29.44 0.32 0.192-28.544a25.536 25.536 0 0 1 25.152-22.208c13.952 0 25.408 11.52 25.408 25.408z" p-id="5946"></path></svg>